HIERARCHY
ROOT hips
{
  OFFSET 0 10.6860622 2.3727825e-15
  CHANNELS 6 Xposition Yposition Zposition Yrotation Xrotation Zrotation
  JOINT leftUpperLeg
  {
    OFFSET 0.6642549969 -0.9402397400000004 0
    CHANNELS 3 Yrotation Xrotation Zrotation
    JOINT leftLowerLeg
    {
      OFFSET 0 -3.997221335632195 0
      CHANNELS 3 Yrotation Xrotation Zrotation
      JOINT leftFoot
      {
        OFFSET -0.13777839790000004 -4.6145792000000005 -0.22186036399999998
        CHANNELS 3 Yrotation Xrotation Zrotation
        JOINT leftToes
        {
          OFFSET -0.03777410834999995 -0.9130806927000008 0.85230013
          CHANNELS 3 Yrotation Xrotation Zrotation
          End Site
          {
            OFFSET -0.03777410834999995 -0.9130806927000008 0.85230013
          }
        }
      }
    }
  }
  JOINT rightUpperLeg
  {
    OFFSET -0.6642778626 -0.9402397400000004 0
    CHANNELS 3 Yrotation Xrotation Zrotation
    JOINT rightLowerLeg
    {
      OFFSET 0 -3.997221452859387 0
      CHANNELS 3 Yrotation Xrotation Zrotation
      JOINT rightFoot
      {
        OFFSET 0.1377926176 -4.6145792000000005 -0.22185782299999995
        CHANNELS 3 Yrotation Xrotation Zrotation
        JOINT rightToes
        {
          OFFSET 0.037780746850000047 -0.9130806927000008 0.85230167
          CHANNELS 3 Yrotation Xrotation Zrotation
          End Site
          {
            OFFSET 0.037780746850000047 -0.9130806927000008 0.85230167
          }
        }
      }
    }
  }
  JOINT spine
  {
    OFFSET 0 0.13988381660000015 0
    CHANNELS 3 Yrotation Xrotation Zrotation
    JOINT chest
    {
      OFFSET 0 0.6191039003973773 0
      CHANNELS 3 Yrotation Xrotation Zrotation
      JOINT upperChest
      {
        OFFSET 0 0.9855186130586943 0
        CHANNELS 3 Yrotation Xrotation Zrotation
        JOINT leftShoulder
        {
          OFFSET 0.1807663869 1.5087829790000005 0
          CHANNELS 3 Yrotation Xrotation Zrotation
          JOINT leftUpperArm
          {
            OFFSET 0.5985063006419806 0 0
            CHANNELS 3 Yrotation Xrotation Zrotation
            JOINT leftLowerArm
            {
              OFFSET 2.2993332369501065 0 0
              CHANNELS 3 Yrotation Xrotation Zrotation
              JOINT leftHand
              {
                OFFSET 2.395047042602395 0 0
                CHANNELS 3 Yrotation Xrotation Zrotation
                JOINT leftIndexProximal
                {
                  OFFSET 0.5766295810000004 0.04556643899499946 0.17265095988184
                  CHANNELS 3 Yrotation Xrotation Zrotation
                  JOINT leftIndexIntermediate
                  {
                    OFFSET 0.2957229000000008 -0.019352197700001517 -0.007932640616999987
                    CHANNELS 3 Yrotation Xrotation Zrotation
                    JOINT leftIndexDistal
                    {
                      OFFSET 0.19008243099999922 -0.012484908149998475 -0.002786250786000012
                      CHANNELS 3 Yrotation Xrotation Zrotation
                      End Site
                      {
                        OFFSET 0.19008243099999922 -0.012484908149998475 -0.002786250786000012
                      }
                    }
                  }
                }
                JOINT leftMiddleProximal
                {
                  OFFSET 0.5834975091000001 0.0524350405149987 0.02204081888183999
                  CHANNELS 3 Yrotation Xrotation Zrotation
                  JOINT leftMiddleIntermediate
                  {
                    OFFSET 0.33880573540000003 -0.019871473270000717 -0.00000971183179999946
                    CHANNELS 3 Yrotation Xrotation Zrotation
                    JOINT leftMiddleDistal
                    {
                      OFFSET 0.20676022730000088 -0.012221336379999448 0.0001471936708000235
                      CHANNELS 3 Yrotation Xrotation Zrotation
                      End Site
                      {
                        OFFSET 0.20676022730000088 -0.012221336379999448 0.0001471936708000235
                      }
                    }
                  }
                }
                JOINT leftLittleProximal
                {
                  OFFSET 0.5344154683999995 -0.012880921405001189 -0.24414037221816004
                  CHANNELS 3 Yrotation Xrotation Zrotation
                  JOINT leftLittleIntermediate
                  {
                    OFFSET 0.21758961730000093 -0.011650919939999227 0.011893592810000034
                    CHANNELS 3 Yrotation Xrotation Zrotation
                    JOINT leftLittleDistal
                    {
                      OFFSET 0.1475273964999999 -0.008152365682999818 0.006001092492999946
                      CHANNELS 3 Yrotation Xrotation Zrotation
                      End Site
                      {
                        OFFSET 0.1475273964999999 -0.008152365682999818 0.006001092492999946
                      }
                    }
                  }
                }
                JOINT leftRingProximal
                {
                  OFFSET 0.5799399463000003 0.026911854694997794 -0.12150566991816003
                  CHANNELS 3 Yrotation Xrotation Zrotation
                  JOINT leftRingIntermediate
                  {
                    OFFSET 0.26167887460000006 -0.013480186499999602 0.010996293000000053
                    CHANNELS 3 Yrotation Xrotation Zrotation
                    JOINT leftRingDistal
                    {
                      OFFSET 0.17667108799999987 -0.008990287899999228 0.0055541023999999065
                      CHANNELS 3 Yrotation Xrotation Zrotation
                      End Site
                      {
                        OFFSET 0.17667108799999987 -0.008990287899999228 0.0055541023999999065
                      }
                    }
                  }
                }
                JOINT leftThumbProximal
                {
                  OFFSET 0.11018806699999972 -0.09448718900500053 0.17047963138184
                  CHANNELS 3 Yrotation Xrotation Zrotation
                  JOINT leftThumbIntermediate
                  {
                    OFFSET 0.31062601459999983 -0.08126270900000132 0.15443142000000007
                    CHANNELS 3 Yrotation Xrotation Zrotation
                    JOINT leftThumbDistal
                    {
                      OFFSET 0.21627175790000086 -0.08833193599999878 0.018771167799999988
                      CHANNELS 3 Yrotation Xrotation Zrotation
                      End Site
                      {
                        OFFSET 0.21627175790000086 -0.08833193599999878 0.018771167799999988
                      }
                    }
                  }
                }
              }
            }
          }
        }
        JOINT neck
        {
          OFFSET 0 1.5463305265074576 0
          CHANNELS 3 Yrotation Xrotation Zrotation
          JOINT head
          {
            OFFSET 0 0.8456443600000344 0
            CHANNELS 3 Yrotation Xrotation Zrotation
            JOINT leftEye
            {
              OFFSET 0.30408573140000006 0.5104519199999995 0.1276382305
              CHANNELS 3 Yrotation Xrotation Zrotation
              End Site
              {
                OFFSET 0.30408573140000006 0.5104519199999995 0.1276382305
              }
            }
            JOINT rightEye
            {
              OFFSET -0.30409491089999996 0.5104519199999995 0.1276379445
              CHANNELS 3 Yrotation Xrotation Zrotation
              End Site
              {
                OFFSET -0.30409491089999996 0.5104519199999995 0.1276379445
              }
            }
            JOINT jaw
            {
              OFFSET -3.155239131000001e-7 -0.11984121820000082 0.60178107
              CHANNELS 3 Yrotation Xrotation Zrotation
              End Site
              {
                OFFSET -3.155239131000001e-7 -0.11984121820000082 0.60178107
              }
            }
          }
        }
        JOINT rightShoulder
        {
          OFFSET -0.1807303465 1.5087829790000005 0
          CHANNELS 3 Yrotation Xrotation Zrotation
          JOINT rightUpperArm
          {
            OFFSET -0.5985063796536958 0 0
            CHANNELS 3 Yrotation Xrotation Zrotation
            JOINT rightLowerArm
            {
              OFFSET -2.2993322059002854 0 0
              CHANNELS 3 Yrotation Xrotation Zrotation
              JOINT rightHand
              {
                OFFSET -2.395045314457259 0 0
                CHANNELS 3 Yrotation Xrotation Zrotation
                JOINT rightIndexProximal
                {
                  OFFSET -0.5764487688300002 0.0441371204405987 0.17361932004999997
                  CHANNELS 3 Yrotation Xrotation Zrotation
                  JOINT rightIndexIntermediate
                  {
                    OFFSET -0.29573011380000047 -0.01934826376999843 -0.007698921482999974
                    CHANNELS 3 Yrotation Xrotation Zrotation
                    JOINT rightIndexDistal
                    {
                      OFFSET -0.19008373999999884 -0.012503266380000655 -0.0026365778999999897
                      CHANNELS 3 Yrotation Xrotation Zrotation
                      End Site
                      {
                        OFFSET -0.19008373999999884 -0.012503266380000655 -0.0026365778999999897
                      }
                    }
                  }
                }
                JOINT rightMiddleProximal
                {
                  OFFSET -0.5834852037300005 0.05211639405060153 0.02307162440000001
                  CHANNELS 3 Yrotation Xrotation Zrotation
                  JOINT rightMiddleIntermediate
                  {
                    OFFSET -0.33880114510000003 -0.019952774050000954 0.0002455003561999819
                    CHANNELS 3 Yrotation Xrotation Zrotation
                    JOINT rightMiddleDistal
                    {
                      OFFSET -0.20675694929999955 -0.012273788999999091 0.00030209124000002766
                      CHANNELS 3 Yrotation Xrotation Zrotation
                      End Site
                      {
                        OFFSET -0.20675694929999955 -0.012273788999999091 0.00030209124000002766
                      }
                    }
                  }
                }
                JOINT rightLittleProximal
                {
                  OFFSET -0.5346811737299992 -0.011214256288399227 -0.24363941305000003
                  CHANNELS 3 Yrotation Xrotation Zrotation
                  JOINT rightLittleIntermediate
                  {
                    OFFSET -0.21757715980000092 -0.011771559690000988 0.01201554387
                    CHANNELS 3 Yrotation Xrotation Zrotation
                    JOINT rightLittleDistal
                    {
                      OFFSET -0.1475201849000004 -0.00822055339600003 0.006082065407000015
                      CHANNELS 3 Yrotation Xrotation Zrotation
                      End Site
                      {
                        OFFSET -0.1475201849000004 -0.00822055339600003 0.006082065407000015
                      }
                    }
                  }
                }
                JOINT rightRingProximal
                {
                  OFFSET -0.5800810755299999 0.027657985680600072 -0.12066365025000003
                  CHANNELS 3 Yrotation Xrotation Zrotation
                  JOINT rightRingIntermediate
                  {
                    OFFSET -0.26166445029999974 -0.013623118409999302 0.011164098990000045
                    CHANNELS 3 Yrotation Xrotation Zrotation
                    JOINT rightRingDistal
                    {
                      OFFSET -0.17666387530000027 -0.009072900100000503 0.005668185599999959
                      CHANNELS 3 Yrotation Xrotation Zrotation
                      End Site
                      {
                        OFFSET -0.17666387530000027 -0.009072900100000503 0.005668185599999959
                      }
                    }
                  }
                }
                JOINT rightThumbProximal
                {
                  OFFSET -0.10997596379000074 -0.09577489355940072 0.16989765924999997
                  CHANNELS 3 Yrotation Xrotation Zrotation
                  JOINT rightThumbIntermediate
                  {
                    OFFSET -0.31036620999999986 -0.08229339117999834 0.15440884469999996
                    CHANNELS 3 Yrotation Xrotation Zrotation
                    JOINT rightThumbDistal
                    {
                      OFFSET -0.21631306399999906 -0.08825326400000111 0.018656797720000014
                      CHANNELS 3 Yrotation Xrotation Zrotation
                      End Site
                      {
                        OFFSET -0.21631306399999906 -0.08825326400000111 0.018656797720000014
                      }
                    }
                  }
                }
              }
            }
          }
        }
      }
    }
  }
}
MOTION
Frames: 8
Frame Time: 0.03333333333333333
0 11.682712981546562 0 0 0 0 0 0 -5.826343164929014 -0.3712483961610101 -3.6333298826370974 5.838118207697276 0 0 0 0 0 0 0 0 5.826343164929014 0.3712483961610101 -3.6333298826370974 -5.838118207697276 0 0 0 0 0 0 0 -4.610651315171937 0 0 3.0831277533083026 0 0 0 0 0 1.5275236235667615 0 0 0 0 0 0 0 0 0 0 0 0 0 0 0 0 0 0 0 0 0 0 0 0 0 0 0 0 0 0 0 0 0 0 0 0 0 0 0 0 0 0 0 0 0 0 0 0 0 0 0 0 0 0 0 0 1.5275236235667615 0 0 0 0 0 0 0 0 0 0 0 0 0 0 1.5275236235667615 0 0 0 0 0 0 0 0 0 0 0 0 0 0 0 0 0 0 0 0 0 0 0 0 0 0 0 0 0 0 0 0 0 0 0 0 0 0 0 0 0 0 0 0 0 0 0 0 0 0 0 0 0 0 0
5.366740723532839 -10.021630262118268 0.24136275405511304 0 -25.001125312038525 0 111.32306860141895 -26.640542283404244 -67.41577054251091 5.071514293730688 44.18848973312173 6.530756882360114 7.357474104224222 17.468727214135928 2.3107079158863932 0 0 0 -111.34605927344987 -26.624160244283843 67.42126470724254 -5.100829460892706 44.18017941360582 -6.576666672845337 -7.34992120107999 17.461812168786786 -2.3090799680853644 0 0 0 0 -13.848664009900508 0 -0.6360591780328252 -1.7429734403997537 -0.1175653357882664 0 0 0 -0.49251971720107285 15.222122870483652 -13.466536214295415 -11.605462678569223 -41.07998782846597 -59.50594821827803 -16.746118834259832 33.71983800071613 5.467392013807128 -4.965824529940208 12.051516560938046 -56.60269300113494 0 0 0 0 0 0 0 0 0 0 0 0 0 0 0 0 0 0 0 0 0 0 0 0 0 0 0 0 0 0 0 0 0 0 0 0 0 0 0 0 0 0 0 0 0 0 19.212292910482915 0 0 8.433216851675887 0 0 0 0 0 0 0 0 0 0 0.686933572658681 14.910731324836329 13.561965752117091 11.50043139964253 -40.78504368941384 59.15612005627967 17.12737392989139 33.69419665463479 -5.684786844423412 4.84097501810981 12.453364677450933 57.0402267487284 0 0 0 0 0 0 0 0 0 0 0 0 0 0 0 0 0 0 0 0 0 0 0 0 0 0 0 0 0 0 0 0 0 0 0 0 0 0 0 0 0 0 0 0 0
5.366740723532839 -10.021630262118268 0.2271648029030216 0 -25.001125312038525 0 111.32308066822505 -26.640538462692145 -67.41578758803026 5.023674066940432 43.863430136843846 6.461225962539974 7.357474991907408 17.468727214135928 2.3107081394676015 0 0 0 -111.34606816869204 -26.624158334201663 67.42127675608288 -5.054608817030597 43.8570975711145 -6.507791657636945 -7.34992120107999 17.461813958824088 -2.3090801916583468 0 0 0 0 -14.625302736260663 0 -0.6356942687454695 0.1849739302749598 -0.13888480809928108 0 0 0 -1.008854945843136 14.20638856420219 -13.343152543857602 -11.630167317773317 -41.21899623755611 -59.15572183856174 -16.339000804175853 33.70867490484207 5.417284209546091 -5.08934521895475 11.607675317023785 -56.319057606111684 0 0 0 0 0 0 0 0 0 0 0 0 0 0 0 0 0 0 0 0 0 0 0 0 0 0 0 0 0 0 0 0 0 0 0 0 0 0 0 0 0 0 0 0 0 0 18.89853810499392 0 0 7.866807182145552 0 0 0 0 0 0 0 0 0 0 1.2227295278488108 13.908472633603425 13.451559821176419 11.521149913442537 -40.927340489218295 58.80251800370526 16.71491699355496 33.683094347375395 -5.6291891199501904 4.959399877367009 11.988403263670623 56.73902605147937 0 0 0 0 0 0 0 0 0 0 0 0 0 0 0 0 0 0 0 0 0 0 0 0 0 0 0 0 0 0 0 0 0 0 0 0 0 0 0 0 0 0 0 0 0
5.366740723532839 -10.021630262118268 0.19876916899111 0 -25.001123427951306 0 111.32307038100139 -26.640542283404244 -67.41577054251091 4.930374532097038 43.21309710816072 6.324378301175548 7.357474104224222 17.468727214135928 2.3107079158863932 0 0 0 -111.34605610386126 -26.624158334201663 67.42126470724254 -4.964483606445798 43.21068395002975 -6.372188262089784 -7.34992120107999 17.461812168786786 -2.3090799680853644 0 0 0 0 -16.180005532766508 0 -0.6371364735129814 4.063197148624138 -0.18182749388538608 0 0 0 -2.0440410300194305 12.17416482738532 -13.06922923161342 -11.683152606424617 -41.496718503730676 -58.45263392777926 -15.524645961403893 33.68723548393739 5.316770876803245 -5.3426454734024835 10.721402476859993 -55.749874187879676 0 0 0 0 0 0 0 0 0 0 0 0 0 0 0 0 0 0 0 0 0 0 0 0 0 0 0 0 0 0 0 0 0 0 0 0 0 0 0 0 0 0 0 0 0 0 18.270513284502442 0 0 6.730917124043299 0 0 0 0 0 0 0 0 0 0 2.296098784718054 11.903077732767803 13.202793755731541 11.566215472666753 -41.21169152328347 58.09267678332172 15.88987441659552 33.66190338674099 -5.51770928189453 5.203258080091414 11.059864332030926 56.13485991993712 0 0 0 0 0 0 0 0 0 0 0 0 0 0 0 0 0 0 0 0 0 0 0 0 0 0 0 0 0 0 0 0 0 0 0 0 0 0 0 0 0 0 0 0 0
5.366740723532839 -10.021630262118268 0.18457148623128983 0 -25.001125312038525 0 111.3230614830888 -26.640546104116467 -67.41576731133763 4.8848832427015525 42.887828539175004 6.257030156020262 7.357474104224222 17.468727214135928 2.3107079158863932 0 0 0 -111.34605610386126 -26.624158334201663 67.42126470724254 -4.920556331489155 42.887390401830444 -6.30543440161243 -7.349920313415364 17.461812168786786 -2.3090786266474703 0 0 0 0 -16.957935866157143 0 -0.6389655173520057 6.011323056980535 -0.20352640520372958 0 0 0 -2.5633290829487887 11.1582674408187 -12.918753396757817 -11.711426758785787 -41.63541445933646 -58.09979649151582 -15.117426607521027 33.676963040737455 5.266380768578413 -5.472419185066602 10.279036076337187 -55.46429012149677 0 0 0 0 0 0 0 0 0 0 0 0 0 0 0 0 0 0 0 0 0 0 0 0 0 0 0 0 0 0 0 0 0 0 0 0 0 0 0 0 0 0 0 0 0 0 17.956256880690155 0 0 6.161486880392257 0 0 0 0 0 0 0 0 0 0 2.834111736388929 10.900533530039626 13.064509395107804 11.590584922192221 -41.35373281381844 57.73643074520479 15.477304060053935 33.6518103803236 -5.461826549738968 5.328684900423992 10.596363061999721 55.83184667935564 0 0 0 0 0 0 0 0 0 0 0 0 0 0 0 0 0 0 0 0 0 0 0 0 0 0 0 0 0 0 0 0 0 0 0 0 0 0 0 0 0 0 0 0 0
5.366740723532839 -10.021630262118268 0.15617585231937822 0 -25.001125312038525 0 111.32306860141895 -26.640542283404244 -67.41577054251091 4.796151104627382 42.23710547819998 6.124416820574993 7.357474104224222 17.468729004241208 2.3107081394676015 0 0 0 -111.34605927344987 -26.624160244283843 67.42126470724254 -4.834897132289876 42.240620445807494 -6.173950363515537 -7.34992120107999 17.461812168786786 -2.3090788502204527 0 0 0 0 -18.514579112191743 0 -0.644922091872626 9.92007584131284 -0.24757933802409682 0 0 0 -3.6063483574457886 9.128387601167452 -12.590867195081291 -11.771641041077611 -41.91243064475318 -57.39141831069735 -14.302981849171754 33.65730805003341 5.165339924903029 -5.738221448768773 9.396019394095443 -54.89107892859272 0 0 0 0 0 0 0 0 0 0 0 0 0 0 0 0 0 0 0 0 0 0 0 0 0 0 0 0 0 0 0 0 0 0 0 0 0 0 0 0 0 0 0 0 0 0 17.327283142430154 0 0 5.0197769053285075 0 0 0 0 0 0 0 0 0 0 3.9138696869954073 8.897234402940397 12.760270606382845 11.643042605579529 -41.63747528069871 57.02124297060437 14.652139052879624 33.632600012678424 -5.3498110310966185 5.586525889110351 9.671091656189082 55.223874824166025 0 0 0 0 0 0 0 0 0 0 0 0 0 0 0 0 0 0 0 0 0 0 0 0 0 0 0 0 0 0 0 0 0 0 0 0 0 0 0 0 0 0 0 0 0
5.366740723532839 -10.021630262118268 0.14197790116728676 0 -25.001125312038525 0 111.32306860141895 -26.640542283404244 -67.41577054251091 4.752880746525043 41.911668849896046 6.059123346766821 7.357474991907408 17.468727214135928 2.3107081394676015 0 0 0 -111.34605927344987 -26.624160244283843 67.42126470724254 -4.793138714915995 41.91715764741364 -6.109191440998506 -7.34992120107999 17.461812168786786 -2.3090799680853644 0 0 0 0 -19.29315274564202 0 -0.649090020926884 11.878448058087569 -0.2700185592161256 0 0 0 -4.130497160603144 8.115005112490698 -12.413482952070675 -11.803573020408123 -42.05072787503824 -57.03590913736919 -13.89576955424704 33.64792529865605 5.114699497875389 -5.874243459386214 8.955434107080235 -54.603402684752915 0 0 0 0 0 0 0 0 0 0 0 0 0 0 0 0 0 0 0 0 0 0 0 0 0 0 0 0 0 0 0 0 0 0 0 0 0 0 0 0 0 0 0 0 0 0 17.012568169865254 0 0 4.447551866614306 0 0 0 0 0 0 0 0 0 0 4.456033107492485 7.897075962633813 12.59434583510793 11.671144202959828 -41.77915838947189 56.66230130459326 14.23956486401287 33.62351114208445 -5.293686077175762 5.718934708096234 9.209395630858102 54.91886577029489 0 0 0 0 0 0 0 0 0 0 0 0 0 0 0 0 0 0 0 0 0 0 0 0 0 0 0 0 0 0 0 0 0 0 0 0 0 0 0 0 0 0 0 0 0
5.366740723532839 -10.021630262118268 0.11358226725537515 0 -25.001125312038525 0 111.32307038100139 -26.640542283404244 -67.41577054251091 4.668471580435279 41.26068822520623 5.930497679888016 7.357474104224222 17.4687218438202 2.3107074687239764 0 0 0 -111.34605927344987 -26.624160244283843 67.42126470724254 -4.711707720231054 41.27013393026617 -5.98158626165919 -7.349920313415364 17.461812168786786 -2.3090786266474703 0 0 0 0 -20.850445419409454 0 -0.6599298745992375 15.797478255321787 -0.3159531358356384 0 0 0 -5.185092407174469 6.092859540840174 -12.031841661384854 -11.871127700059505 -42.326881579615545 -56.32223027246856 -13.081418178009741 33.63005700100214 5.013197533529204 -6.152532430156573 8.076275316969323 -54.025853030359016 0 0 0 0 0 0 0 0 0 0 0 0 0 0 0 0 0 0 0 0 0 0 0 0 0 0 0 0 0 0 0 0 0 0 0 0 0 0 0 0 0 0 0 0 0 0 16.38271334532898 0 0 3.300494979508074 0 0 0 0 0 0 0 0 0 0 5.545968335185071 5.901247680317398 12.234944251375325 11.731105063222254 -42.062143944690796 55.94174972697435 13.414484719476793 33.60632857761284 -5.18121873271426 5.990720314402239 8.288081603743528 54.306707293422996 0 0 0 0 0 0 0 0 0 0 0 0 0 0 0 0 0 0 0 0 0 0 0 0 0 0 0 0 0 0 0 0 0 0 0 0 0 0 0 0 0 0 0 0 0
